<svg width="24" height="24" viewBox="0 0 24 24" fill="none" xmlns="http://www.w3.org/2000/svg">
<circle cx="12" cy="12" r="12" fill="#E0E0E0"/>
<path d="M16.8125 17H6.1875C5.90571 17 5.63546 16.8946 5.4362 16.7071C5.23694 16.5196 5.125 16.2652 5.125 16V9C5.125 8.73478 5.23694 8.48043 5.4362 8.29289C5.63546 8.10536 5.90571 8 6.1875 8H8.3125L9.375 6.5H13.625L14.6875 8H16.8125C17.0943 8 17.3645 8.10536 17.5638 8.29289C17.7631 8.48043 17.875 8.73478 17.875 9V16C17.875 16.2652 17.7631 16.5196 17.5638 16.7071C17.3645 16.8946 17.0943 17 16.8125 17Z" stroke="#172739" stroke-linecap="round" stroke-linejoin="round"/>
<path d="M11.5 14.5C12.8203 14.5 13.8906 13.4926 13.8906 12.25C13.8906 11.0074 12.8203 10 11.5 10C10.1797 10 9.10938 11.0074 9.10938 12.25C9.10938 13.4926 10.1797 14.5 11.5 14.5Z" stroke="#172739" stroke-linecap="round" stroke-linejoin="round"/>
</svg>
