<svg width="21" height="20" viewBox="0 0 21 20" fill="none" xmlns="http://www.w3.org/2000/svg">
<rect opacity="0.2" x="0.966797" width="20.0328" height="19.2623" fill="#BDBDBD"/>
<path d="M12.6814 14.6393C13.7139 14.6393 14.5426 13.8378 14.5833 12.8052L14.8007 6.09398H15.8196C15.9691 6.09398 16.0913 5.97173 16.0913 5.82229C16.0913 5.67285 15.969 5.5506 15.8196 5.5506H12.9667V4.93928C12.9667 4.34149 12.4776 3.85242 11.8798 3.85242H9.81486C9.21708 3.85242 8.728 4.34149 8.728 4.93928V5.5506H5.86146C5.71202 5.5506 5.58978 5.67285 5.58978 5.82229C5.58978 5.97173 5.71202 6.09398 5.86146 6.09398H6.88037L7.09776 12.8052C7.13851 13.8377 7.96723 14.6393 8.99968 14.6393H12.6814ZM9.27142 4.93926C9.27142 4.64038 9.51591 4.39589 9.81479 4.39589H11.8798C12.1787 4.39589 12.4232 4.64038 12.4232 4.93926V5.55058H9.27135L9.27142 4.93926ZM7.65472 12.7781L7.43733 6.08044H14.2708L14.04 12.7781C14.0128 13.5117 13.415 14.0959 12.6814 14.0959H9.01336C8.27969 14.0959 7.68191 13.5252 7.65471 12.7781H7.65472Z" fill="#EB5757"/>
<path d="M10.8473 12.357C10.9967 12.357 11.119 12.2348 11.119 12.0853V8.02327C11.119 7.87383 10.9967 7.75159 10.8473 7.75159C10.6978 7.75159 10.5756 7.87383 10.5756 8.02327V12.0853C10.5756 12.2347 10.6978 12.3569 10.8473 12.3569V12.357Z" fill="#EB5757"/>
<path d="M9.21703 12.357C9.36647 12.357 9.48871 12.2348 9.48871 12.0853V8.02327C9.48871 7.87383 9.36647 7.75159 9.21703 7.75159C9.06758 7.75159 8.94534 7.87383 8.94534 8.02327V12.0853C8.94534 12.2347 9.06759 12.3569 9.21703 12.3569V12.357Z" fill="#EB5757"/>
<path d="M12.4775 12.357C12.627 12.357 12.7492 12.2348 12.7492 12.0853V8.02327C12.7492 7.87383 12.627 7.75159 12.4775 7.75159C12.3281 7.75159 12.2059 7.87383 12.2059 8.02327V12.0853C12.2059 12.2347 12.3281 12.3569 12.4775 12.3569V12.357Z" fill="#EB5757"/>
</svg>
