<svg width="119" height="30" viewBox="0 0 119 30" fill="none" xmlns="http://www.w3.org/2000/svg">
<g clip-path="url(#clip0_890_138)">
<path d="M4.69113 27.8572L1.09792 23.3036H0V29.8783H1.17278V25.2029L4.8658 29.8783H5.86391V23.3036H4.69113V27.8572Z" fill="white"/>
<path d="M8.00982 27.0779H11.3784V26.0552H8.00982V24.3263H11.8276V23.3036H6.83704V29.8783H11.8775V28.8312H8.00982V27.0779Z" fill="white"/>
<path d="M16.968 27.0779C16.968 28.2955 16.3192 28.9042 15.2712 28.9042C14.2232 28.9042 13.5744 28.2468 13.5744 27.0292V23.3036H12.4016V27.0779C12.4016 28.9773 13.5245 29.9757 15.2712 29.9757C17.0428 29.9757 18.1657 29.0016 18.1657 27.0292V23.3036H16.968V27.0779Z" fill="white"/>
<path d="M27.5977 23.2549L24.6783 29.7808L22.9316 27.3945C23.8798 27.1266 24.5286 26.4935 24.5286 25.3977V25.3734C24.5286 24.789 24.3289 24.3019 23.9796 23.961C23.5554 23.5471 22.8817 23.3036 22.0333 23.3036H19.0389V29.8783H20.2117V27.5893H21.6839L23.3308 29.8783H24.6284H24.7282H25.8261L26.5248 28.2955H29.7187L30.3925 29.8783H31.6401L28.6957 23.2549H27.5977ZM20.2117 26.5666V24.3506H21.9335C22.8068 24.3506 23.3308 24.7403 23.3308 25.4464V25.4708C23.3308 26.1282 22.7819 26.5666 21.9335 26.5666H20.2117ZM26.9739 27.2727L28.1218 24.6429L29.2945 27.2727H26.9739Z" fill="white"/>
<path d="M33.2122 23.3036H32.0394V29.8783H36.7555V28.8312H33.2122V23.3036Z" fill="white"/>
<path d="M41.9208 26.0552C40.6232 25.763 40.3238 25.5195 40.3238 25.0325V25.0081C40.3238 24.5698 40.723 24.2289 41.4217 24.2289C42.0455 24.2289 42.6444 24.4724 43.2433 24.9107L43.8671 24.0341C43.1934 23.4984 42.3949 23.2062 41.4217 23.2062C40.0743 23.2062 39.126 23.9854 39.126 25.1055V25.1299C39.126 26.3474 39.9245 26.7614 41.3718 27.1023C42.6194 27.3945 42.8939 27.638 42.8939 28.1006V28.125C42.8939 28.612 42.4448 28.9529 41.6962 28.9529C40.8478 28.9529 40.224 28.6364 39.5752 28.1006L38.8516 28.9286C39.6501 29.6347 40.6232 29.9756 41.6712 29.9756C43.0936 29.9756 44.0667 29.2451 44.0667 28.0032V27.9789C44.0917 26.9075 43.3431 26.3961 41.9208 26.0552Z" fill="white"/>
<path d="M45.9132 27.0779H49.2818V26.0552H45.9132V24.3263H49.706V23.3036H44.7155V29.8783H49.7559V28.8312H45.9132V27.0779Z" fill="white"/>
<path d="M53.6984 26.4205L51.6523 23.3036H50.4047V29.8783H51.5525V25.1786L53.6735 28.2711H53.6984L55.8444 25.1542V29.8783H57.0172V23.3036H55.7446L53.6984 26.4205Z" fill="white"/>
<path d="M59.2131 23.3036H58.0403V29.8783H59.2131V23.3036Z" fill="white"/>
<path d="M63.4301 28.9286C62.1326 28.9286 61.2093 27.8815 61.2093 26.5909V26.5666C61.2093 25.276 62.1326 24.2532 63.4301 24.2532C64.2036 24.2532 64.7776 24.5941 65.3265 25.0812L66.0751 24.2289C65.4263 23.6201 64.6777 23.2062 63.4301 23.2062C61.384 23.2062 59.9617 24.7403 59.9617 26.6153V26.6396C59.9617 28.5146 61.4339 30.0244 63.3802 30.0244C64.6528 30.0244 65.4014 29.586 66.1001 28.8555L65.3515 28.1006C64.7776 28.5877 64.2535 28.9286 63.4301 28.9286Z" fill="white"/>
<path d="M69.818 23.1818C67.7469 23.1818 66.2997 24.7403 66.2997 26.5909V26.6153C66.2997 28.4659 67.7469 30 69.818 30C71.8891 30 73.3364 28.4416 73.3364 26.5909V26.5666C73.3364 24.7159 71.8891 23.1818 69.818 23.1818ZM72.0887 26.6153C72.0887 27.8815 71.1655 28.9286 69.818 28.9286C68.4706 28.9286 67.5224 27.8571 67.5224 26.5909V26.5666C67.5224 25.3003 68.4456 24.2533 69.7931 24.2533C71.1405 24.2533 72.0887 25.3247 72.0887 26.6153Z" fill="white"/>
<path d="M78.7012 27.8572L75.083 23.3036H73.9851V29.8783H75.1579V25.2029L78.8759 29.8783H79.874V23.3036H78.7012V27.8572Z" fill="white"/>
<path d="M83.3424 23.3036H80.8221V29.8783H83.3424C85.4634 29.8783 86.9106 28.4416 86.9106 26.5909V26.5666C86.9106 24.7159 85.4634 23.3036 83.3424 23.3036ZM85.663 26.6153C85.663 27.9059 84.7397 28.8312 83.3174 28.8312H81.9949V24.3507H83.3174C84.7397 24.3507 85.663 25.3003 85.663 26.6153Z" fill="white"/>
<path d="M92.051 27.0779C92.051 28.2955 91.4022 28.9042 90.3542 28.9042C89.3062 28.9042 88.6574 28.2468 88.6574 27.0292V23.3036H87.4846V27.0779C87.4846 28.9773 88.6075 29.9757 90.3542 29.9757C92.1258 29.9757 93.2487 29.0016 93.2487 27.0292V23.3036H92.0759V27.0779H92.051Z" fill="white"/>
<path d="M97.2661 28.9286C95.9685 28.9286 95.0453 27.8815 95.0453 26.5909V26.5666C95.0453 25.276 95.9685 24.2532 97.2661 24.2532C98.0396 24.2532 98.6135 24.5941 99.1625 25.0812L99.9111 24.2289C99.2623 23.6201 98.5137 23.2062 97.2661 23.2062C95.2199 23.2062 93.7976 24.7403 93.7976 26.6153V26.6396C93.7976 28.5146 95.2698 30.0244 97.2162 30.0244C98.4887 30.0244 99.2373 29.586 99.936 28.8555L99.1874 28.1006C98.6135 28.5877 98.0895 28.9286 97.2661 28.9286Z" fill="white"/>
<path d="M99.936 24.375H102.082V29.8783H103.255V24.375H105.401V23.3036H99.936V24.375Z" fill="white"/>
<path d="M109.119 23.1818C107.048 23.1818 105.6 24.7403 105.6 26.5909V26.6153C105.6 28.4659 107.048 30 109.119 30C111.19 30 112.637 28.4416 112.637 26.5909V26.5666C112.637 24.7159 111.19 23.1818 109.119 23.1818ZM111.389 26.6153C111.389 27.8815 110.466 28.9286 109.119 28.9286C107.771 28.9286 106.823 27.8571 106.823 26.5909V26.5666C106.823 25.3003 107.746 24.2533 109.094 24.2533C110.441 24.2533 111.389 25.3247 111.389 26.6153Z" fill="white"/>
<path d="M117.179 27.3945C118.127 27.1266 118.775 26.4935 118.775 25.3977V25.3734C118.775 24.789 118.576 24.302 118.227 23.9611C117.802 23.5471 117.129 23.3036 116.28 23.3036H113.286V29.8783H114.459V27.5893H115.931L117.578 29.8783H118.975L117.179 27.3945ZM114.484 26.5666V24.3507H116.205C117.079 24.3507 117.603 24.7403 117.603 25.4464V25.4708C117.603 26.1283 117.054 26.5666 116.205 26.5666H114.484Z" fill="white"/>
<path d="M69.1693 17.4351C69.1693 18.3117 68.6203 18.8718 67.697 18.8718H51.303C50.4047 18.8718 49.8308 18.336 49.8308 17.4351V1.43669C49.8308 0.560065 50.3798 0 51.303 0H67.697C68.5953 0 69.1693 0.535714 69.1693 1.43669V17.4351Z" fill="#007DBE"/>
<path d="M56.0441 0H55.0211V5.84416C54.8713 5.99026 54.7466 6.18507 54.7466 6.40422C54.7466 6.81818 55.0959 7.15909 55.5201 7.15909C55.9443 7.15909 56.2937 6.81818 56.2937 6.40422C56.2937 6.18507 56.1938 5.96591 56.0192 5.84416V0H56.0441ZM55.6199 6.74513C55.595 6.74513 55.57 6.74513 55.5451 6.74513C55.5201 6.74513 55.4952 6.74513 55.4702 6.74513C55.2955 6.72078 55.1957 6.57468 55.1957 6.40422C55.1957 6.20942 55.3704 6.03896 55.57 6.03896C55.7696 6.03896 55.9443 6.20942 55.9443 6.40422C55.8944 6.57468 55.7696 6.72078 55.6199 6.74513Z" fill="white"/>
<path d="M53.1246 0H52.1015V3.40909C51.9268 3.55519 51.827 3.75 51.827 3.96916C51.827 4.38312 52.1764 4.72403 52.6006 4.72403C53.0248 4.72403 53.3741 4.38312 53.3741 3.96916C53.3741 3.75 53.2743 3.53084 53.0996 3.40909V0H53.1246ZM52.7004 4.33441C52.6754 4.33441 52.6505 4.33441 52.6255 4.33441C52.6006 4.33441 52.5756 4.33441 52.5507 4.33441C52.376 4.28571 52.2762 4.16396 52.2762 3.99351C52.2762 3.7987 52.4508 3.62825 52.6505 3.62825C52.8501 3.62825 53.0248 3.7987 53.0248 3.99351C52.9749 4.13961 52.875 4.28571 52.7004 4.33441Z" fill="white"/>
<path d="M67.7718 3.55519V0C67.7469 0 67.7219 0 67.6969 0H66.7487V3.55519C66.599 3.7013 66.4742 3.8961 66.4742 4.11526C66.4742 4.52922 66.8236 4.87013 67.2478 4.87013C67.672 4.87013 68.0213 4.52922 68.0213 4.11526C68.0463 3.8961 67.9465 3.7013 67.7718 3.55519ZM67.3476 4.45617C67.3226 4.45617 67.2977 4.45617 67.2727 4.45617C67.2478 4.45617 67.2228 4.45617 67.1979 4.45617C67.0232 4.43182 66.9234 4.28571 66.9234 4.11526C66.9234 3.92045 67.0981 3.75 67.2977 3.75C67.4973 3.75 67.672 3.92045 67.672 4.11526C67.6221 4.28571 67.4973 4.43182 67.3476 4.45617Z" fill="white"/>
<path d="M64.8524 0H63.8293V1.12013C63.6546 1.26623 63.5548 1.46104 63.5548 1.68019C63.5548 2.09416 63.9041 2.43506 64.3284 2.43506C64.7526 2.43506 65.1019 2.09416 65.1019 1.68019C65.1019 1.46104 65.0021 1.24188 64.8274 1.12013V0H64.8524ZM64.4282 2.04545C64.4032 2.04545 64.3783 2.04545 64.3533 2.04545C64.3284 2.04545 64.3034 2.04545 64.2784 2.04545C64.1038 2.0211 64.004 1.875 64.004 1.70455C64.004 1.50974 64.1786 1.33929 64.3783 1.33929C64.5779 1.33929 64.7526 1.50974 64.7526 1.70455C64.7276 1.85065 64.6028 1.99675 64.4282 2.04545Z" fill="white"/>
<path d="M58.9386 8.32793C58.5144 8.32793 58.1651 8.66884 58.1651 9.0828C58.1651 9.3263 58.2649 9.52111 58.4396 9.66721V15.5114H58.2899L53.1745 10.2516C52.9999 10.0568 52.7004 9.91072 52.426 9.91072H51.9768C51.5776 9.91072 51.2282 10.2273 51.2282 10.6169V15.4383C51.0785 15.5844 50.9537 15.7792 50.9537 15.9984C50.9537 16.4123 51.3031 16.7533 51.7273 16.7533C52.1515 16.7533 52.5008 16.4123 52.5008 15.9984C52.5008 15.7792 52.401 15.5601 52.2263 15.4383V10.9091H52.376C52.376 10.9091 52.376 10.9091 52.401 10.9091L57.4914 16.1688C57.666 16.3636 57.9655 16.5097 58.24 16.5097H58.6891C59.0883 16.5097 59.4127 16.1932 59.4127 15.7792V9.66721C59.5625 9.52111 59.6872 9.3263 59.6872 9.10715C59.7122 8.66884 59.3628 8.32793 58.9386 8.32793ZM51.8271 16.3636C51.8021 16.3636 51.7772 16.3636 51.7522 16.3636C51.7273 16.3636 51.7023 16.3636 51.6774 16.3636C51.5027 16.3393 51.3779 16.1932 51.3779 16.0227C51.3779 15.8279 51.5526 15.6575 51.7522 15.6575C51.9518 15.6575 52.1265 15.8279 52.1265 16.0227C52.1016 16.1688 51.9768 16.3149 51.8271 16.3636ZM58.9386 9.44806C58.739 9.44806 58.5643 9.2776 58.5643 9.0828C58.5643 8.91234 58.7141 8.74189 58.8887 8.74189C58.9137 8.74189 58.9137 8.74189 58.9386 8.74189C58.9636 8.74189 58.9636 8.74189 58.9885 8.74189C59.1632 8.76624 59.3129 8.91234 59.3129 9.0828C59.3129 9.30195 59.1383 9.44806 58.9386 9.44806Z" fill="white"/>
<path d="M66.4245 12.711H61.4838C61.1345 12.711 60.86 12.4432 60.86 12.1023V11.4935C60.86 11.1526 61.1345 10.8847 61.4838 10.8847H66.6989C66.8486 11.0552 67.0483 11.1526 67.2728 11.1526C67.697 11.1526 68.0464 10.8117 68.0464 10.3977C68.0464 9.98376 67.697 9.64285 67.2728 9.64285C67.0483 9.64285 66.8237 9.74026 66.6989 9.91071H61.4838C60.5855 9.91071 59.8369 10.6169 59.8369 11.5179V12.1266C59.8369 13.0032 60.5605 13.7338 61.4838 13.7338H66.4245C66.7738 13.7338 67.0483 14.0016 67.0483 14.3425V14.9513C67.0483 15.2922 66.7738 15.5601 66.4245 15.5601H61.1844C61.0346 15.414 60.835 15.2922 60.6104 15.2922C60.1863 15.2922 59.8369 15.6331 59.8369 16.0471C59.8369 16.461 60.1863 16.8019 60.6104 16.8019C60.835 16.8019 61.0596 16.7045 61.1844 16.5341H66.4245C67.3228 16.5341 68.0464 15.8279 68.0464 14.9269V14.3182C68.0464 13.4416 67.3228 12.711 66.4245 12.711ZM67.2728 10.0568C67.4475 10.0568 67.5972 10.1786 67.6222 10.349C67.6222 10.3734 67.6222 10.3977 67.6222 10.4221C67.6222 10.4464 67.6222 10.4708 67.6222 10.4951C67.5972 10.6656 67.4475 10.7873 67.2728 10.7873C67.0732 10.7873 66.8986 10.6169 66.8986 10.4221C66.8986 10.2029 67.0732 10.0568 67.2728 10.0568ZM60.6104 16.3636C60.4358 16.3636 60.311 16.2419 60.2611 16.0958C60.2611 16.0714 60.2362 16.0227 60.2362 15.9984C60.2362 15.974 60.2362 15.9253 60.2611 15.901C60.311 15.7549 60.4358 15.6331 60.6104 15.6331C60.8101 15.6331 60.9847 15.8036 60.9847 15.9984C60.9598 16.2175 60.8101 16.3636 60.6104 16.3636Z" fill="white"/>
</g>
<defs>
<clipPath id="clip0_890_138">
<rect width="119" height="30" fill="white"/>
</clipPath>
</defs>
</svg>
